<svg width="16" height="17" viewBox="0 0 16 17" fill="none" xmlns="http://www.w3.org/2000/svg">
<path d="M0 16.5V12.7222L11.7333 1.01111C11.9111 0.848148 12.1076 0.722222 12.3227 0.633333C12.5378 0.544445 12.7636 0.5 13 0.5C13.2364 0.5 13.4661 0.544445 13.6889 0.633333C13.9117 0.722222 14.1043 0.855555 14.2667 1.03333L15.4889 2.27778C15.6667 2.44074 15.7964 2.63333 15.8782 2.85556C15.96 3.07778 16.0006 3.3 16 3.52222C16 3.75926 15.9594 3.98533 15.8782 4.20044C15.797 4.41556 15.6673 4.6117 15.4889 4.78889L3.77778 16.5H0ZM12.9778 4.76667L14.2222 3.52222L12.9778 2.27778L11.7333 3.52222L12.9778 4.76667Z" fill="white"/>
</svg>
