<svg width="16" height="16" viewBox="0 0 16 16" fill="none" xmlns="http://www.w3.org/2000/svg">
<path d="M14 6.00122H10V2.00122C10 1.47079 9.78929 0.96208 9.41421 0.587007C9.03914 0.211934 8.53043 0.0012207 8 0.0012207C7.46957 0.0012207 6.96086 0.211934 6.58579 0.587007C6.21071 0.96208 6 1.47079 6 2.00122L6.071 6.00122H2C1.46957 6.00122 0.960859 6.21193 0.585786 6.58701C0.210714 6.96208 0 7.47079 0 8.00122C0 8.53165 0.210714 9.04036 0.585786 9.41543C0.960859 9.79051 1.46957 10.0012 2 10.0012L6.071 9.93022L6 14.0012C6 14.5317 6.21071 15.0404 6.58579 15.4154C6.96086 15.7905 7.46957 16.0012 8 16.0012C8.53043 16.0012 9.03914 15.7905 9.41421 15.4154C9.78929 15.0404 10 14.5317 10 14.0012V9.93022L14 10.0012C14.5304 10.0012 15.0391 9.79051 15.4142 9.41543C15.7893 9.04036 16 8.53165 16 8.00122C16 7.47079 15.7893 6.96208 15.4142 6.58701C15.0391 6.21193 14.5304 6.00122 14 6.00122Z" fill="white"/>
</svg>
