<svg width="578" height="642" viewBox="0 0 578 642" fill="none" xmlns="http://www.w3.org/2000/svg">
<path d="M186 642C211.405 642 232 621.405 232 596C232 570.595 211.405 550 186 550C160.595 550 140 570.595 140 596C140 621.405 160.595 642 186 642Z" fill="#1A87EC"/>
<path d="M560 179C569.941 179 578 170.941 578 161C578 151.059 569.941 143 560 143C550.059 143 542 151.059 542 161C542 170.941 550.059 179 560 179Z" fill="#FF7F3B"/>
<path d="M478 295C496.778 295 512 279.778 512 261C512 242.222 496.778 227 478 227C459.222 227 444 242.222 444 261C444 279.778 459.222 295 478 295Z" fill="#1A87EC"/>
<path d="M68 220C90.6437 220 109 201.644 109 179C109 156.356 90.6437 138 68 138C45.3563 138 27 156.356 27 179C27 201.644 45.3563 220 68 220Z" fill="#1A87EC"/>
<path d="M416 119C427.598 119 437 109.598 437 98C437 86.402 427.598 77 416 77C404.402 77 395 86.402 395 98C395 109.598 404.402 119 416 119Z" fill="#FD4798"/>
<path d="M229 61C242.255 61 253 50.2548 253 37C253 23.7452 242.255 13 229 13C215.745 13 205 23.7452 205 37C205 50.2548 215.745 61 229 61Z" fill="#71F65A"/>
<path d="M519 82C541.644 82 560 63.6437 560 41C560 18.3563 541.644 0 519 0C496.356 0 478 18.3563 478 41C478 63.6437 496.356 82 519 82Z" fill="#FD4798"/>
<path d="M292 446C304.703 446 315 435.703 315 423C315 410.297 304.703 400 292 400C279.297 400 269 410.297 269 423C269 435.703 279.297 446 292 446Z" fill="#FD4798"/>
<path d="M144 498C163.33 498 179 482.33 179 463C179 443.67 163.33 428 144 428C124.67 428 109 443.67 109 463C109 482.33 124.67 498 144 498Z" fill="#FD4798"/>
<path d="M329 282C340.046 282 349 273.046 349 262C349 250.954 340.046 242 329 242C317.954 242 309 250.954 309 262C309 273.046 317.954 282 329 282Z" fill="#FF7F3B"/>
<path d="M157 273C166.389 273 174 265.389 174 256C174 246.611 166.389 239 157 239C147.611 239 140 246.611 140 256C140 265.389 147.611 273 157 273Z" fill="#FD4798"/>
<path d="M80 579C96.0163 579 109 566.016 109 550C109 533.984 96.0163 521 80 521C63.9837 521 51 533.984 51 550C51 566.016 63.9837 579 80 579Z" fill="#71F65A"/>
<path d="M224 169C237.255 169 248 158.255 248 145C248 131.745 237.255 121 224 121C210.745 121 200 131.745 200 145C200 158.255 210.745 169 224 169Z" fill="#FF7F3B"/>
<path d="M349 386C367.778 386 383 370.778 383 352C383 333.222 367.778 318 349 318C330.222 318 315 333.222 315 352C315 370.778 330.222 386 349 386Z" fill="#1A87EC"/>
<path d="M146 105C159.807 105 171 93.8071 171 80C171 66.1929 159.807 55 146 55C132.193 55 121 66.1929 121 80C121 93.8071 132.193 105 146 105Z" fill="#1A87EC"/>
<path d="M232 361C249.121 361 263 347.121 263 330C263 312.879 249.121 299 232 299C214.879 299 201 312.879 201 330C201 347.121 214.879 361 232 361Z" fill="#71F65A"/>
<path d="M27 300C41.9117 300 54 287.912 54 273C54 258.088 41.9117 246 27 246C12.0883 246 0 258.088 0 273C0 287.912 12.0883 300 27 300Z" fill="#71F65A"/>
<path d="M457 458C479.644 458 498 439.644 498 417C498 394.356 479.644 376 457 376C434.356 376 416 394.356 416 417C416 439.644 434.356 458 457 458Z" fill="#FF7F3B"/>
<path d="M40 423C55.464 423 68 410.464 68 395C68 379.536 55.464 367 40 367C24.536 367 12 379.536 12 395C12 410.464 24.536 423 40 423Z" fill="#FF7F3B"/>
<path d="M449 206C460.046 206 469 197.046 469 186C469 174.954 460.046 166 449 166C437.954 166 429 174.954 429 186C429 197.046 437.954 206 449 206Z" fill="#71F65A"/>
<path d="M232 536C244.15 536 254 526.15 254 514C254 501.85 244.15 492 232 492C219.85 492 210 501.85 210 514C210 526.15 219.85 536 232 536Z" fill="#FF7F3B"/>
<path d="M316 560C329.255 560 340 549.255 340 536C340 522.745 329.255 512 316 512C302.745 512 292 522.745 292 536C292 549.255 302.745 560 316 560Z" fill="#71F65A"/>
<path d="M316 186C337.539 186 355 168.539 355 147C355 125.461 337.539 108 316 108C294.461 108 277 125.461 277 147C277 168.539 294.461 186 316 186Z" fill="#1A87EC"/>
<path d="M156 376C168.703 376 179 365.703 179 353C179 340.297 168.703 330 156 330C143.297 330 133 340.297 133 353C133 365.703 143.297 376 156 376Z" fill="#1A87EC"/>
</svg>
