<svg width="32" height="32" viewBox="0 0 32 32" fill="none" xmlns="http://www.w3.org/2000/svg">
<path d="M28 12H20V4C20 2.93913 19.5786 1.92172 18.8284 1.17157C18.0783 0.421427 17.0609 0 16 0C14.9391 0 13.9217 0.421427 13.1716 1.17157C12.4214 1.92172 12 2.93913 12 4L12.142 12H4C2.93913 12 1.92172 12.4214 1.17157 13.1716C0.421427 13.9217 0 14.9391 0 16C0 17.0609 0.421427 18.0783 1.17157 18.8284C1.92172 19.5786 2.93913 20 4 20L12.142 19.858L12 28C12 29.0609 12.4214 30.0783 13.1716 30.8284C13.9217 31.5786 14.9391 32 16 32C17.0609 32 18.0783 31.5786 18.8284 30.8284C19.5786 30.0783 20 29.0609 20 28V19.858L28 20C29.0609 20 30.0783 19.5786 30.8284 18.8284C31.5786 18.0783 32 17.0609 32 16C32 14.9391 31.5786 13.9217 30.8284 13.1716C30.0783 12.4214 29.0609 12 28 12Z" fill="#131313"/>
</svg>
