<svg width="578" height="642" viewBox="0 0 578 642" fill="none" xmlns="http://www.w3.org/2000/svg">
<path d="M392 642C366.595 642 346 621.405 346 596C346 570.595 366.595 550 392 550C417.405 550 438 570.595 438 596C438 621.405 417.405 642 392 642Z" fill="#1A87EC"/>
<path d="M18 179C8.05887 179 0 170.941 0 161C0 151.059 8.05887 143 18 143C27.9411 143 36 151.059 36 161C36 170.941 27.9411 179 18 179Z" fill="#FF7F3B"/>
<path d="M100 295C81.2223 295 66 279.778 66 261C66 242.222 81.2223 227 100 227C118.778 227 134 242.222 134 261C134 279.778 118.778 295 100 295Z" fill="#1A87EC"/>
<path d="M510 220C487.356 220 469 201.644 469 179C469 156.356 487.356 138 510 138C532.644 138 551 156.356 551 179C551 201.644 532.644 220 510 220Z" fill="#1A87EC"/>
<path d="M162 119C150.402 119 141 109.598 141 98C141 86.402 150.402 77 162 77C173.598 77 183 86.402 183 98C183 109.598 173.598 119 162 119Z" fill="#FF7F3B"/>
<path d="M349 61C335.745 61 325 50.2548 325 37C325 23.7452 335.745 13 349 13C362.255 13 373 23.7452 373 37C373 50.2548 362.255 61 349 61Z" fill="#1A87EC"/>
<path d="M59 82C36.3563 82 18 63.6437 18 41C18 18.3563 36.3563 0 59 0C81.6437 0 100 18.3563 100 41C100 63.6437 81.6437 82 59 82Z" fill="#1A87EC"/>
<path d="M286 446C273.297 446 263 435.703 263 423C263 410.297 273.297 400 286 400C298.703 400 309 410.297 309 423C309 435.703 298.703 446 286 446Z" fill="#1A87EC"/>
<path d="M434 498C414.67 498 399 482.33 399 463C399 443.67 414.67 428 434 428C453.33 428 469 443.67 469 463C469 482.33 453.33 498 434 498Z" fill="#1A87EC"/>
<path d="M249 282C237.954 282 229 273.046 229 262C229 250.954 237.954 242 249 242C260.046 242 269 250.954 269 262C269 273.046 260.046 282 249 282Z" fill="#FD4798"/>
<path d="M421 273C411.611 273 404 265.389 404 256C404 246.611 411.611 239 421 239C430.389 239 438 246.611 438 256C438 265.389 430.389 273 421 273Z" fill="#1A87EC"/>
<path d="M498 579C481.984 579 469 566.016 469 550C469 533.984 481.984 521 498 521C514.016 521 527 533.984 527 550C527 566.016 514.016 579 498 579Z" fill="#FD4798"/>
<path d="M354 169C340.745 169 330 158.255 330 145C330 131.745 340.745 121 354 121C367.255 121 378 131.745 378 145C378 158.255 367.255 169 354 169Z" fill="#FF7F3B"/>
<path d="M229 386C210.222 386 195 370.778 195 352C195 333.222 210.222 318 229 318C247.778 318 263 333.222 263 352C263 370.778 247.778 386 229 386Z" fill="#71F65A"/>
<path d="M432 105C418.193 105 407 93.8071 407 80C407 66.1929 418.193 55 432 55C445.807 55 457 66.1929 457 80C457 93.8071 445.807 105 432 105Z" fill="#71F65A"/>
<path d="M346 361C328.879 361 315 347.121 315 330C315 312.879 328.879 299 346 299C363.121 299 377 312.879 377 330C377 347.121 363.121 361 346 361Z" fill="#FF7F3B"/>
<path d="M551 300C536.088 300 524 287.912 524 273C524 258.088 536.088 246 551 246C565.912 246 578 258.088 578 273C578 287.912 565.912 300 551 300Z" fill="#FD4798"/>
<path d="M121 458C98.3563 458 80 439.644 80 417C80 394.356 98.3563 376 121 376C143.644 376 162 394.356 162 417C162 439.644 143.644 458 121 458Z" fill="#FD4798"/>
<path d="M538 423C522.536 423 510 410.464 510 395C510 379.536 522.536 367 538 367C553.464 367 566 379.536 566 395C566 410.464 553.464 423 538 423Z" fill="#1A87EC"/>
<path d="M129 206C117.954 206 109 197.046 109 186C109 174.954 117.954 166 129 166C140.046 166 149 174.954 149 186C149 197.046 140.046 206 129 206Z" fill="#71F65A"/>
<path d="M346 536C333.85 536 324 526.15 324 514C324 501.85 333.85 492 346 492C358.15 492 368 501.85 368 514C368 526.15 358.15 536 346 536Z" fill="#71F65A"/>
<path d="M262 560C248.745 560 238 549.255 238 536C238 522.745 248.745 512 262 512C275.255 512 286 522.745 286 536C286 549.255 275.255 560 262 560Z" fill="#1A87EC"/>
<path d="M262 186C240.461 186 223 168.539 223 147C223 125.461 240.461 108 262 108C283.539 108 301 125.461 301 147C301 168.539 283.539 186 262 186Z" fill="#FD4798"/>
<path d="M422 376C409.297 376 399 365.703 399 353C399 340.297 409.297 330 422 330C434.703 330 445 340.297 445 353C445 365.703 434.703 376 422 376Z" fill="#71F65A"/>
</svg>
