<svg width="16" height="14" viewBox="0 0 16 14" fill="none" xmlns="http://www.w3.org/2000/svg">
<path d="M5.707 7.293C5.61475 7.19749 5.50441 7.12131 5.3824 7.0689C5.2604 7.01649 5.12918 6.9889 4.9964 6.98775C4.86362 6.9866 4.73194 7.0119 4.60905 7.06218C4.48615 7.11246 4.3745 7.18671 4.2806 7.28061C4.18671 7.3745 4.11246 7.48615 4.06218 7.60905C4.0119 7.73194 3.9866 7.86362 3.98775 7.9964C3.9889 8.12918 4.01649 8.2604 4.0689 8.3824C4.12131 8.50441 4.19749 8.61475 4.293 8.707L7.293 11.707C7.48053 11.8945 7.73484 11.9998 8 11.9998C8.26516 11.9998 8.51947 11.8945 8.707 11.707L11.707 8.707C11.8892 8.5184 11.99 8.2658 11.9877 8.0036C11.9854 7.7414 11.8802 7.49059 11.6948 7.30518C11.5094 7.11977 11.2586 7.0146 10.9964 7.01233C10.7342 7.01005 10.4816 7.11084 10.293 7.293L9 8.586V3H14C14.5304 3 15.0391 3.21071 15.4142 3.58579C15.7893 3.96086 16 4.46957 16 5V12C16 12.5304 15.7893 13.0391 15.4142 13.4142C15.0391 13.7893 14.5304 14 14 14H2C1.46957 14 0.960859 13.7893 0.585786 13.4142C0.210714 13.0391 0 12.5304 0 12V5C0 4.46957 0.210714 3.96086 0.585786 3.58579C0.960859 3.21071 1.46957 3 2 3H7V8.586L5.707 7.293ZM7 1C7 0.734784 7.10536 0.48043 7.29289 0.292893C7.48043 0.105357 7.73478 0 8 0C8.26522 0 8.51957 0.105357 8.70711 0.292893C8.89464 0.48043 9 0.734784 9 1V3H7V1Z" fill="white"/>
</svg>
