<svg width="22" height="23" viewBox="0 0 22 23" fill="none" xmlns="http://www.w3.org/2000/svg">
<path d="M21.0519 22.5L12.643 14.0921C11.9716 14.6641 11.1994 15.1067 10.3266 15.42C9.4537 15.7333 8.57637 15.8899 7.69456 15.8899C5.5442 15.8899 3.72419 15.1456 2.23451 13.657C0.744837 12.1684 0 10.3491 0 8.199C0 6.0489 0.743941 4.22866 2.23183 2.73827C3.71971 1.24788 5.53883 0.501793 7.68919 0.500003C9.83955 0.498213 11.6605 1.24296 13.1519 2.73424C14.6434 4.22552 15.3891 6.04577 15.3891 8.19497C15.3891 9.12769 15.224 10.0304 14.8936 10.9032C14.5633 11.7759 14.1291 12.5225 13.591 13.1428L22 21.5494L21.0519 22.5ZM7.6959 14.5459C9.47743 14.5459 10.9814 13.9327 12.2079 12.7064C13.4344 11.4801 14.0476 9.97582 14.0476 8.19362C14.0476 6.41142 13.4344 4.90761 12.2079 3.68218C10.9814 2.45675 9.47743 1.84359 7.6959 1.84269C5.91438 1.8418 4.40994 2.45496 3.18257 3.68218C1.9552 4.9094 1.34196 6.41322 1.34286 8.19362C1.34375 9.97403 1.95699 11.4778 3.18257 12.7051C4.40815 13.9323 5.91215 14.5455 7.69456 14.5446" fill="white"/>
</svg>
