<svg width="16" height="17" viewBox="0 0 16 17" fill="none" xmlns="http://www.w3.org/2000/svg">
<path d="M15.3105 16.5L9.1949 10.3851C8.70659 10.8011 8.14503 11.1231 7.51022 11.3509C6.87542 11.5788 6.23736 11.6927 5.59605 11.6927C4.03215 11.6927 2.7085 11.1514 1.6251 10.0688C0.5417 8.98614 0 7.66298 0 6.09927C0 4.53556 0.541048 3.21175 1.62315 2.12783C2.70524 1.04391 4.02824 0.501304 5.59214 0.500002C7.15604 0.4987 8.48034 1.04033 9.56504 2.1249C10.6497 3.20947 11.1921 4.53328 11.1921 6.09634C11.1921 6.77468 11.072 7.43122 10.8317 8.06595C10.5915 8.70067 10.2757 9.24361 9.88439 9.69475L16 15.8086L15.3105 16.5ZM5.59702 10.7152C6.89267 10.7152 7.98649 10.2693 8.87847 9.37739C9.77045 8.48552 10.2164 7.39151 10.2164 6.09536C10.2164 4.79922 9.77045 3.70554 8.87847 2.81431C7.98649 1.92309 6.89267 1.47716 5.59702 1.47651C4.30137 1.47585 3.20723 1.92179 2.31459 2.81431C1.42196 3.70684 0.975971 4.80052 0.976622 6.09536C0.977273 7.39021 1.42326 8.48389 2.31459 9.37641C3.20592 10.2689 4.29974 10.7149 5.59605 10.7142" fill="white"/>
</svg>
